<?xml version="1.0" encoding="utf-8"?>
<!-- Generator: Adobe Illustrator 16.0.0, SVG Export Plug-In . SVG Version: 6.00 Build 0)  -->
<!DOCTYPE svg PUBLIC "-//W3C//DTD SVG 1.1//EN" "http://www.w3.org/Graphics/SVG/1.1/DTD/svg11.dtd">
<svg version="1.1" xmlns="http://www.w3.org/2000/svg" xmlns:xlink="http://www.w3.org/1999/xlink" x="0px" y="0px" width="185px"
	 height="163.25px" viewBox="0 0 185 163.25" enable-background="new 0 0 185 163.25" xml:space="preserve">
<g id="Layer_25">
</g>
<g id="words_1_" display="none">
	<g id="words">
		<text transform="matrix(1 0 0 1 172.9321 -62.1357)" display="inline"><tspan x="0" y="0" fill="#BC465B" font-family="'MyriadPro-Regular'" font-size="40.811">Simply Clean </tspan><tspan x="0" y="48.974" fill="#BC465B" font-family="'MyriadPro-Regular'" font-size="40.811">Simply Dao </tspan></text>
		
			<text transform="matrix(1 0 0 1 151.7407 123.9238)" display="inline" fill="#BC465B" font-family="'SignPainter-HouseScript'" font-size="97.4432">Simply </text>
	</g>
	<g id="words_2">
		
			<text transform="matrix(1 0 0 1 205.752 89.0083)" display="inline" fill="#BC465B" font-family="'QlassikBold'" font-size="76.2974">SIMPLY CLEAN</text>
		
			<text transform="matrix(1 0 0 1 205.752 139.043)" display="inline" fill="#303030" font-family="'QlassikBold'" font-size="76.2974">SIMPLY DAO</text>
	</g>
	<g id="words_2_copy">
		
			<text transform="matrix(1 0 0 1 205.752 82.167)" display="inline" fill="#BC465B" font-family="'QlassikBold'" font-size="76.2974">SIMPLY CLEAN</text>
		
			<text transform="matrix(1 0 0 1 205.752 147.8301)" display="inline" fill="#303030" font-family="'QlassikBold'" font-size="76.2974">SIMPLY DAO</text>
	</g>
	<g id="words_2_copy_2" display="inline">
		<text transform="matrix(1 0 0 1 205.752 82.167)" fill="#BC465B" font-family="'Moon-Light'" font-size="76.2974">SIMPLY CLEAN</text>
		<text transform="matrix(0.9521 0 0 1 203.084 147.8301)" fill="#303030" font-family="'Moon-Bold'" font-size="76.2974">SIMPLY DAO</text>
	</g>
	<g id="words_2_copy_3">
		
			<text transform="matrix(1 0 0 1 -4.4458 204.5723)" display="inline" fill="#BC465B" font-family="'Moon-Light'" font-size="29.0389">SIMPLY CLEAN</text>
		
			<text transform="matrix(0.9681 0 0 1 -5.4453 229.5635)" display="inline" fill="#303030" font-family="'Moon-Bold'" font-size="29.0389">SIMPLY DAO</text>
	</g>
</g>
<g id="circle">
	<circle fill="#DCBAC3" cx="89.5" cy="82.018" r="73.531"/>
</g>
<g id="Layer_27">
	
		<ellipse transform="matrix(-0.1513 0.9885 -0.9885 -0.1513 173.1834 -98.6798)" fill="#3F6C33" cx="128.956" cy="25.009" rx="7.298" ry="3.492"/>
	
		<ellipse transform="matrix(0.6203 0.7843 -0.7843 0.6203 114.3233 -91.4247)" fill="#3F6C33" cx="151.596" cy="72.375" rx="7.298" ry="3.493"/>
	
		<ellipse transform="matrix(0.8616 0.5075 -0.5075 0.8616 31.3717 -57.5584)" fill="#3F6C33" cx="121.25" cy="28.758" rx="7.298" ry="3.493"/>
</g>
<g id="backhair">
	<path fill="#303030" d="M36,81.5c0,0-9.021,55.75,13.239,81.75c0,0-3.136-35.491-0.562-60.871"/>
	<path fill="#282828" d="M119.939,35.881c0,0,10.892-21.923,32.692-14.923s31.069,57.22-5.815,54.485"/>
	<path fill="none" stroke="#282828" stroke-miterlimit="10" d="M122.721,31.551"/>
	<path fill="none" stroke="#282828" stroke-miterlimit="10" d="M121.25,37.091c0,0,0.354-23.225,30.192-14.841"/>
	<path fill="none" stroke="#282828" stroke-miterlimit="10" d="M168.174,62.889c0,0-12.851,22.637-24.887,13.249"/>
	<path fill="none" stroke="#282828" stroke-miterlimit="10" d="M170.25,52c0,0,3.645,31.734-18.808,21.75"/>
	<path fill="#282828" d="M168.174,36.483c0,0,11.325,19.688,3.576,29.769l-2.583-9.827"/>
	<ellipse fill="none" stroke="#282828" stroke-miterlimit="10" cx="148.745" cy="81.5" rx="5.498" ry="12.242"/>
	<ellipse fill="none" stroke="#282828" stroke-miterlimit="10" cx="151.596" cy="72.86" rx="9.331" ry="12.217"/>
	<path fill="none" stroke="#282828" stroke-miterlimit="10" d="M156.888,25.009c0,0,34.112,25.011,14.758,30.575"/>
	<path fill="none" stroke="#282828" stroke-miterlimit="10" d="M143.247,21.508c0,0,34.342,0,24.927,24.667"/>
</g>
<g id="Layer_26">
	
		<ellipse transform="matrix(-0.7831 0.6219 -0.6219 -0.7831 270.6667 -22.423)" fill="#4A7C3D" cx="139.244" cy="35.993" rx="7.298" ry="3.492"/>
	
		<ellipse transform="matrix(-0.3913 -0.9202 0.9202 -0.3913 139.8424 234.7288)" fill="#4A7C3D" cx="147.547" cy="71.118" rx="7.298" ry="3.492"/>
	
		<ellipse transform="matrix(-0.9534 -0.3019 0.3019 -0.9534 277.465 163.715)" fill="#4A7C3D" cx="151.382" cy="60.418" rx="7.298" ry="3.492"/>
	
		<ellipse transform="matrix(-0.1513 0.9885 -0.9885 -0.1513 182.7834 -95.944)" fill="#4A7C3D" cx="132.581" cy="30.498" rx="7.298" ry="3.492"/>
	
		<ellipse transform="matrix(-0.9681 -0.2506 0.2506 -0.9681 272.7733 127.0759)" fill="#4A7C3D" cx="144.476" cy="46.175" rx="7.298" ry="3.493"/>
	<g>
		
			<ellipse transform="matrix(0.5765 0.8171 -0.8171 0.5765 78.3816 -90.9364)" fill="#579149" cx="126.911" cy="30.141" rx="10.007" ry="4.789"/>
		
			<ellipse transform="matrix(0.9709 0.2395 -0.2395 0.9709 13.4755 -32.6626)" fill="#579149" cx="141.103" cy="39.103" rx="10.007" ry="4.789"/>
	</g>
	
		<ellipse transform="matrix(0.5816 0.8135 -0.8135 0.5816 114.989 -94.7297)" fill="#579149" cx="149.586" cy="64.421" rx="7.298" ry="3.493"/>
	
		<ellipse transform="matrix(-0.1513 0.9885 -0.9885 -0.1513 219.1254 -81.3274)" fill="#579149" cx="144.477" cy="53.408" rx="7.298" ry="3.492"/>
</g>
<g id="shirt" display="none">
	<path display="inline" fill="#F8F5B9" d="M74.207,148.265c0,0-8.302,9.288-13.084,24.964c0,0,24.251,8.563,50.503-0.561
		c0,0-6.419-16.357-12.919-24.013"/>
</g>
<g id="Layer_29">
	<path fill="#C17478" d="M118.991,139.704c0,0,8.391-13.63,29.025-0.781C168.651,151.773,124,156.187,118.991,139.704z"/>
	<path fill="#D18282" d="M112.783,135.094c0,0,2.333-15.834,26.364-12.167S123.889,148.262,112.783,135.094z"/>
</g>
<g id="head">
	<path fill="#F8D2B5" d="M133.856,50.235c3.425,8.353,5.353,17.783,5.353,27.765c0,34.241-11.364,62.203-50.667,62
		c-39.483-0.204-50.667-27.759-50.667-62c0-17.76,6.103-33.775,15.881-45.078"/>
	<path fill="#F8D2B5" d="M93.307,141.734c0,3.606-2.923,6.53-6.529,6.53l0,0c-3.606,0-6.53-2.924-6.53-6.53v-3.469
		c0-3.606,2.923-6.53,6.53-6.53l0,0c3.606,0,6.529,2.923,6.529,6.53V141.734z"/>
	<path fill="#F8D2B5" d="M80.248,143l-6.042,5.265c0,0,2.995,6.554,12.25,7.235c9.75,0.718,12.25-6.845,12.25-6.845L93.183,143"/>
</g>
<g id="scarf">
	<g>
		<path fill="#D18282" d="M57.215,135.347c0,0,27.55-32.676,63.056-0.71c0,0,14.145-0.396,12.44,11.848
			c0,0,9.869,12.629-37.677,9.998c0,0-53.385,5.271-42.447-9.617C52.587,146.865,49.159,139.967,57.215,135.347z"/>
		<g>
			<defs>
				<path id="SVGID_1_" d="M57.215,135.348c0,0,27.55-32.676,63.056-0.711c0,0,14.145-0.396,12.44,11.847
					c0,0,9.869,12.629-37.677,9.998c0,0-53.385,5.271-42.447-9.617C52.587,146.865,49.159,139.967,57.215,135.348z"/>
			</defs>
			<clipPath id="SVGID_2_">
				<use xlink:href="#SVGID_1_"  overflow="visible"/>
			</clipPath>
			<path clip-path="url(#SVGID_2_)" fill="#FFFFFF" d="M77.498,117.228c0,0-18.211,28.25-4.183,47.5l-25.306-3l-8.358-42.53
				L77.498,117.228z"/>
		</g>
		<g>
			<defs>
				<path id="SVGID_3_" d="M57.215,135.347c0,0,27.55-32.676,63.056-0.71c0,0,14.145-0.396,12.44,11.848
					c0,0,9.869,12.629-37.677,9.998c0,0-53.385,5.271-42.447-9.617C52.587,146.865,49.159,139.967,57.215,135.347z"/>
			</defs>
			<clipPath id="SVGID_4_">
				<use xlink:href="#SVGID_3_"  overflow="visible"/>
			</clipPath>
			<path clip-path="url(#SVGID_4_)" fill="#FFFFFF" d="M104.435,113.728c0,0,5.934,22.75-2.086,54.5l34.927-3l2.986-42
				L104.435,113.728z"/>
		</g>
	</g>
	<path fill="#D18282" d="M69.495,157.246l13.005,3.379c0,0,11.961,1.904,22.23-3.798l-9.605-11.202L69.495,157.246z"/>
</g>
<g id="shirt_1_" display="none">
	<path display="inline" fill="#2C599A" d="M72.132,150.588c0,0-10.854,13.312-14.591,21.305c0,0,10.515,3.701,15.84,4.02
		l8.623-21.296l-4.63-12.949L68.54,146L72.132,150.588z"/>
	<path display="inline" fill="#2C599A" d="M99.935,149.755c0,0,12.027,14.291,15.855,21.413c0,0-10.291,4.045-16.938,4.617
		l-8.192-20.527l5.505-13.591l7.804,4.416L99.935,149.755z"/>
	<path display="inline" fill="#214669" d="M82.925,164.112c-0.492,1.252-1.907,1.869-3.16,1.377L76.74,164.3
		c-1.253-0.492-1.87-1.907-1.377-3.16l0,0c0.492-1.252,1.907-1.869,3.16-1.377l3.024,1.189
		C82.801,161.444,83.417,162.859,82.925,164.112L82.925,164.112z"/>
	<path display="inline" fill="#214669" d="M78.974,173.362c-0.492,1.252-1.907,1.869-3.16,1.377l-3.024-1.189
		c-1.253-0.492-1.87-1.907-1.377-3.16l0,0c0.492-1.252,1.907-1.869,3.16-1.377l3.024,1.189
		C78.85,170.694,79.467,172.109,78.974,173.362L78.974,173.362z"/>
</g>
<g id="bangs">
	<path fill="#303030" d="M120.62,30.006c30.77,20.315,26.927,60.632,26.927,60.632c-16.047,5.112-34.09-45.388-34.09-45.388
		s-27,51.547-86.945,49.11c0,0-4.697-59.693,45.141-76.122c0,0,21.655-6.905,27.054,8.761C98.707,27,114.207,25.772,120.62,30.006z"
		/>
	<path fill="none" stroke="#2F2F2F" stroke-miterlimit="10" d="M41.207,43.535c0,0-42.707,55.964-6.208,75.215"/>
	<path fill="none" stroke="#2F2F2F" stroke-miterlimit="10" d="M142.274,72c0,0,18.476,40.367-4.024,52.75"/>
	<path fill="#303030" d="M98.707,27c0,0,51.034-8.97,48.767,53.265"/>
	<ellipse fill="#2F2F2F" cx="100.823" cy="14.75" rx="3.759" ry="9.5"/>
	
		<ellipse transform="matrix(0.604 0.7969 -0.7969 0.604 59.6272 -84.4637)" fill="#2F2F2F" cx="114.815" cy="17.775" rx="3.759" ry="9.5"/>
	<path fill="none" stroke="#2F2F2F" stroke-miterlimit="10" d="M142.274,52c0,0,15.226,12.25,4.226,40.75"/>
	<path fill="none" stroke="#2F2F2F" stroke-miterlimit="10" d="M60.989,24.25c0,0-33.242,3.75-25.991,41"/>
	<path fill="none" stroke="#2F2F2F" stroke-miterlimit="10" d="M30.725,86.074c0,0-8.421,32.926,10.177,52.926"/>
</g>
<g id="highlights">
	
		<ellipse transform="matrix(0.594 -0.8045 0.8045 0.594 -25.5957 56.1027)" opacity="0.2" fill="#FFFFFF" cx="42.781" cy="53.408" rx="11.177" ry="5.046"/>
	
		<ellipse transform="matrix(0.594 -0.8045 0.8045 0.594 -7.7977 58.7317)" opacity="0.2" fill="#FFFFFF" cx="54.285" cy="37.091" rx="3.391" ry="2.708"/>
</g>
<g id="ears">
	<ellipse fill="#F8D2B5" cx="37.875" cy="98.026" rx="11.364" ry="14"/>
	<ellipse fill="#F8D2B5" cx="139.208" cy="100.461" rx="11.364" ry="14"/>
	<path fill="#E0B89D" d="M33.207,91.5c0,0,8.362,6.03,7.653,13.138"/>
	<path fill="#E0B89D" d="M136.214,104.638c0,0,0-8.888,6.06-10.277"/>
</g>
<g id="hair">
	<path fill="#303030" d="M129.385,72c0,0,1.673,69.235-6.664,80.734c0,0,26.914-18,19.164-79.25"/>
</g>
<g id="clips">
	<path fill="#D18282" d="M119.447,60.298c-1.438,0.744-3.254,0.088-4.06-1.466l0,0c-0.803-1.554-0.29-3.416,1.147-4.16l13.138-6.8
		c1.438-0.744,3.255-0.088,4.06,1.466l0,0c0.803,1.553,0.291,3.416-1.147,4.16L119.447,60.298z"/>
	<path fill="#FFFFFF" d="M123.094,66.818c-1.438,0.744-3.254,0.088-4.06-1.466l0,0c-0.803-1.554-0.29-3.416,1.147-4.16l13.138-6.8
		c1.438-0.744,3.255-0.088,4.06,1.466l0,0c0.803,1.553,0.291,3.416-1.147,4.16L123.094,66.818z"/>
</g>
<g id="face">
	<g id="face_1_" display="none">
		
			<ellipse transform="matrix(0.8682 -0.4961 0.4961 0.8682 -28.0945 38.2075)" display="inline" fill="#191919" cx="57.889" cy="72" rx="5.921" ry="2.656"/>
		
			<ellipse transform="matrix(0.8302 0.5574 -0.5574 0.8302 59.627 -51.7771)" display="inline" fill="#191919" cx="114.815" cy="72" rx="5.908" ry="2.656"/>
		<circle display="inline" opacity="0.2" fill="#F37F95" cx="60.989" cy="110.5" r="14.75"/>
		<circle display="inline" opacity="0.2" fill="#F37F95" cx="113.457" cy="110" r="14.75"/>
		<ellipse display="inline" fill="#191919" cx="64.598" cy="91.5" rx="3.609" ry="10.269"/>
		<ellipse display="inline" fill="#191919" cx="111.206" cy="91.5" rx="3.609" ry="10.269"/>
		<path display="inline" fill="none" stroke="#191919" stroke-linecap="round" stroke-linejoin="round" stroke-miterlimit="10" d="
			M74.777,107.762c0,0,11.392,17.862,24,2.362"/>
		<path display="inline" opacity="0.2" fill="#F37F95" d="M88.542,102.837c0,0.995-1.083,1.801-2.417,1.801l0,0
			c-1.335,0-2.418-0.806-2.418-1.801V90.801c0-0.995,1.083-1.801,2.418-1.801l0,0c1.335,0,2.417,0.806,2.417,1.801V102.837z"/>
	</g>
	<g id="face_copy" display="none">
		
			<ellipse transform="matrix(0.8682 -0.4961 0.4961 0.8682 -28.0945 38.2075)" display="inline" fill="#191919" cx="57.889" cy="72" rx="5.921" ry="2.656"/>
		
			<ellipse transform="matrix(0.8302 0.5574 -0.5574 0.8302 59.627 -51.7771)" display="inline" fill="#191919" cx="114.815" cy="72" rx="5.908" ry="2.656"/>
		<circle display="inline" opacity="0.2" fill="#F37F95" cx="60.989" cy="110.5" r="14.75"/>
		<circle display="inline" opacity="0.2" fill="#F37F95" cx="113.457" cy="110" r="14.75"/>
		<ellipse display="inline" fill="#191919" cx="64.598" cy="91.5" rx="3.609" ry="10.269"/>
		<ellipse display="inline" fill="#191919" cx="111.206" cy="91.5" rx="3.609" ry="10.269"/>
		<path display="inline" opacity="0.2" fill="#F37F95" d="M88.542,102.837c0,0.995-1.083,1.801-2.417,1.801l0,0
			c-1.335,0-2.418-0.806-2.418-1.801V90.801c0-0.995,1.083-1.801,2.418-1.801l0,0c1.335,0,2.417,0.806,2.417,1.801V102.837z"/>
		<path display="inline" fill="#FFFFFF" d="M80.248,114.461L111.207,110c0,0,1.041,13-15.479,15.25S80.248,114.461,80.248,114.461z"
			/>
		
			<line display="inline" fill="#FFFFFF" stroke="#B0AFB0" stroke-width="0.5" stroke-miterlimit="10" x1="86.125" y1="113.615" x2="87.047" y2="124.75"/>
		
			<line display="inline" fill="#FFFFFF" stroke="#B0AFB0" stroke-width="0.5" stroke-miterlimit="10" x1="93.307" y1="112.58" x2="93.957" y2="125.511"/>
		
			<line display="inline" fill="#FFFFFF" stroke="#B0AFB0" stroke-width="0.5" stroke-miterlimit="10" x1="100.079" y1="111.604" x2="101.222" y2="123.916"/>
		
			<line display="inline" fill="#FFFFFF" stroke="#B0AFB0" stroke-width="0.5" stroke-miterlimit="10" x1="106.447" y1="110.686" x2="106.976" y2="120.39"/>
		<g display="inline">
			<path fill="#FEE600" d="M17.409,122.14c0,0.731-0.593,1.324-1.324,1.324l0,0c-0.731,0-1.324-0.593-1.324-1.324v-5.391
				c0-0.731,0.593-1.324,1.324-1.324l0,0c0.731,0,1.324,0.593,1.324,1.324V122.14z"/>
			<path fill="#FEE600" d="M13.389,120.917c-0.731,0-1.324-0.593-1.324-1.324l0,0c0-0.731,0.593-1.324,1.324-1.324h5.391
				c0.731,0,1.324,0.593,1.324,1.324l0,0c0,0.731-0.593,1.324-1.324,1.324H13.389z"/>
		</g>
		<g display="inline">
			<path fill="#FEE600" d="M11.847,111.498c0,1.149-0.932,2.081-2.082,2.081l0,0c-1.149,0-2.081-0.932-2.081-2.081v-8.475
				c0-1.149,0.932-2.081,2.081-2.081l0,0c1.15,0,2.082,0.932,2.082,2.081V111.498z"/>
			<path fill="#FEE600" d="M5.528,109.576c-1.149,0-2.081-0.932-2.081-2.081l0,0c0-1.15,0.932-2.082,2.081-2.082h8.475
				c1.149,0,2.081,0.932,2.081,2.082l0,0c0,1.149-0.932,2.081-2.081,2.081H5.528z"/>
		</g>
	</g>
	<g id="face_copy_2" display="none">
		
			<ellipse transform="matrix(0.8682 -0.4961 0.4961 0.8682 -28.0945 38.2075)" display="inline" fill="#191919" cx="57.889" cy="72" rx="5.921" ry="2.656"/>
		
			<ellipse transform="matrix(0.8302 0.5574 -0.5574 0.8302 59.627 -51.7771)" display="inline" fill="#191919" cx="114.815" cy="72" rx="5.908" ry="2.656"/>
		<circle display="inline" opacity="0.2" fill="#F37F95" cx="60.989" cy="110.5" r="14.75"/>
		<circle display="inline" opacity="0.2" fill="#F37F95" cx="113.457" cy="110" r="14.75"/>
		<ellipse display="inline" fill="#191919" cx="66.391" cy="89" rx="5.401" ry="2.475"/>
		<path display="inline" fill="none" stroke="#191919" stroke-linecap="round" stroke-linejoin="round" stroke-miterlimit="10" d="
			M74.777,107.762c0,0,11.392,17.862,24,2.362"/>
		<path display="inline" opacity="0.2" fill="#F37F95" d="M88.542,102.837c0,0.995-1.083,1.801-2.417,1.801l0,0
			c-1.335,0-2.418-0.806-2.418-1.801V90.801c0-0.995,1.083-1.801,2.418-1.801l0,0c1.335,0,2.417,0.806,2.417,1.801V102.837z"/>
		<ellipse display="inline" fill="#191919" cx="106.224" cy="89" rx="5.401" ry="2.475"/>
	</g>
	<g id="face_copy_3" display="none">
		
			<ellipse transform="matrix(0.8682 -0.4961 0.4961 0.8682 -28.0945 38.2075)" display="inline" fill="#191919" cx="57.889" cy="72" rx="5.921" ry="2.656"/>
		
			<ellipse transform="matrix(0.8302 0.5574 -0.5574 0.8302 59.627 -51.7771)" display="inline" fill="#191919" cx="114.815" cy="72" rx="5.908" ry="2.656"/>
		<circle display="inline" opacity="0.2" fill="#F37F95" cx="60.989" cy="110.5" r="14.75"/>
		<circle display="inline" opacity="0.2" fill="#F37F95" cx="113.457" cy="110" r="14.75"/>
		<path display="inline" fill="none" stroke="#191919" stroke-linecap="round" stroke-linejoin="round" stroke-miterlimit="10" d="
			M74.777,107.762c0,0,11.347,16.988,25.054,0.738"/>
		<path display="inline" opacity="0.2" fill="#F37F95" d="M88.542,102.837c0,0.995-1.083,1.801-2.417,1.801l0,0
			c-1.335,0-2.418-0.806-2.418-1.801V90.801c0-0.995,1.083-1.801,2.418-1.801l0,0c1.335,0,2.417,0.806,2.417,1.801V102.837z"/>
		<path display="inline" fill="#191919" d="M111.625,89c0,1.367-2.419,0-5.401,0c-2.983,0-5.401,1.367-5.401,0
			c0-1.367,2.418-2.476,5.402-2.476C109.207,86.524,111.625,87.633,111.625,89z"/>
		<path display="inline" fill="#191919" d="M69.959,89c0,1.367-2.419,0-5.401,0c-2.983,0-5.401,1.367-5.401,0
			c0-1.367,2.418-2.476,5.402-2.476C67.541,86.524,69.959,87.633,69.959,89z"/>
	</g>
	<g id="face_copy_5">
		
			<ellipse transform="matrix(0.8682 -0.4961 0.4961 0.8682 -28.0945 38.2075)" fill="#191919" cx="57.889" cy="72" rx="5.921" ry="2.656"/>
		
			<ellipse transform="matrix(0.8302 0.5574 -0.5574 0.8302 59.627 -51.7771)" fill="#191919" cx="114.815" cy="72" rx="5.908" ry="2.656"/>
		<circle opacity="0.2" fill="#F37F95" cx="60.989" cy="110.5" r="14.75"/>
		<circle opacity="0.2" fill="#F37F95" cx="113.457" cy="110" r="14.75"/>
		<path fill="#191919" d="M113.86,89c0,1.367-2.419,0-5.401,0c-2.983,0-5.401,1.367-5.401,0c0-1.367,2.418-2.476,5.402-2.476
			C111.441,86.524,113.86,87.633,113.86,89z"/>
		<path fill="#191919" d="M69.959,89c0,1.367-2.419,0-5.401,0c-2.983,0-5.401,1.367-5.401,0c0-1.367,2.418-2.476,5.402-2.476
			C67.541,86.524,69.959,87.633,69.959,89z"/>
	</g>
	<g id="face_copy_4" display="none">
		
			<ellipse transform="matrix(0.8682 -0.4961 0.4961 0.8682 -28.0945 38.2075)" display="inline" fill="#191919" cx="57.889" cy="72" rx="5.921" ry="2.656"/>
		
			<ellipse transform="matrix(0.8302 0.5574 -0.5574 0.8302 59.627 -51.7771)" display="inline" fill="#191919" cx="114.815" cy="72" rx="5.908" ry="2.656"/>
		<circle display="inline" opacity="0.2" fill="#F37F95" cx="60.989" cy="110.5" r="14.75"/>
		<circle display="inline" opacity="0.2" fill="#F37F95" cx="113.457" cy="110" r="14.75"/>
		<path display="inline" opacity="0.2" fill="#F37F95" d="M88.542,102.837c0,0.995-1.083,1.801-2.417,1.801l0,0
			c-1.335,0-2.418-0.806-2.418-1.801V90.801c0-0.995,1.083-1.801,2.418-1.801l0,0c1.335,0,2.417,0.806,2.417,1.801V102.837z"/>
		<path display="inline" fill="#191919" d="M112.31,89c0,1.367-2.419,0-5.401,0c-2.983,0-5.401,1.367-5.401,0
			c0-1.367,2.418-2.476,5.402-2.476C109.892,86.524,112.31,87.633,112.31,89z"/>
		<path display="inline" fill="#191919" d="M69.959,89c0,1.367-2.419,0-5.401,0c-2.983,0-5.401,1.367-5.401,0
			c0-1.367,2.418-2.476,5.402-2.476C67.541,86.524,69.959,87.633,69.959,89z"/>
		<path display="inline" fill="#FFFFFF" d="M73.478,111.698l31.216,0.29c0,0-1.321,15.762-18.271,13.437
			C69.905,123.16,73.478,111.698,73.478,111.698z"/>
		
			<line display="inline" fill="#FFFFFF" stroke="#AEADAB" stroke-width="0.5" stroke-miterlimit="10" x1="78.457" y1="111.988" x2="78.457" y2="122.969"/>
		
			<line display="inline" fill="#FFFFFF" stroke="#AEADAB" stroke-width="0.5" stroke-miterlimit="10" x1="85.817" y1="111.813" x2="85.817" y2="125.659"/>
		
			<line display="inline" fill="#FFFFFF" stroke="#AEADAB" stroke-width="0.5" stroke-miterlimit="10" x1="93.474" y1="112.026" x2="93.474" y2="125.25"/>
		
			<line display="inline" fill="#FFFFFF" stroke="#AEADAB" stroke-width="0.5" stroke-miterlimit="10" x1="99.896" y1="112.026" x2="99.896" y2="122.333"/>
	</g>
</g>
<g id="glasses">
	<path fill="none" stroke="#5D0C0D" stroke-width="3" stroke-miterlimit="10" d="M84.749,85.327c0,9.803-7.947,17.75-17.75,17.75
		s-17.75-7.947-17.75-17.75c0-9.803,7.666-9.181,17.469-9.181C76.521,76.146,84.749,75.523,84.749,85.327z"/>
	<path fill="none" stroke="#5D0C0D" stroke-width="3" stroke-miterlimit="10" d="M127.835,85.327c0,9.803-7.947,17.75-17.75,17.75
		s-17.75-7.947-17.75-17.75c0-9.803,7.666-9.181,17.469-9.181C119.606,76.146,127.835,75.523,127.835,85.327z"/>
	<path fill="none" stroke="#5D0C0D" stroke-width="3" stroke-miterlimit="10" d="M84.445,87.333c0,0,4.892-2.833,7.89,0"/>
	<path fill="none" stroke="#5D0C0D" stroke-width="3" stroke-miterlimit="10" d="M125.336,86.704"/>
</g>
</svg>
