<?xml version="1.0" encoding="utf-8"?>
<!-- Generator: Adobe Illustrator 24.2.3, SVG Export Plug-In . SVG Version: 6.00 Build 0)  -->
<svg version="1.1" id="Layer_1" xmlns="http://www.w3.org/2000/svg" xmlns:xlink="http://www.w3.org/1999/xlink" x="0px" y="0px"
	 viewBox="0 0 185 163.2" style="enable-background:new 0 0 185 163.2;" xml:space="preserve">
<style type="text/css">
	.st0{display:none;}
	.st1{display:inline;fill:#BC465B;}
	.st2{font-family:'ArialMT';}
	.st3{font-size:40.811px;}
	.st4{font-family:'SignPainter-HouseScript';}
	.st5{font-size:97.4432px;}
	.st6{display:inline;}
	.st7{fill:#CC6577;}
	.st8{fill:#3F6C33;}
	.st9{fill:#303030;}
	.st10{fill:#282828;}
	.st11{fill:none;stroke:#282828;stroke-miterlimit:10;}
	.st12{fill:#4A7C3D;}
	.st13{fill:#579149;}
	.st14{display:inline;fill:#F8F5B9;}
	.st15{fill:#C17478;}
	.st16{fill:#D18282;}
	.st17{fill:#F8D2B5;}
	.st18{clip-path:url(#SVGID_2_);fill:#FFFFFF;}
	.st19{clip-path:url(#SVGID_4_);fill:#FFFFFF;}
	.st20{display:inline;fill:#2C599A;}
	.st21{display:inline;fill:#214669;}
	.st22{fill:none;stroke:#2F2F2F;stroke-miterlimit:10;}
	.st23{fill:#2F2F2F;}
	.st24{opacity:0.2;fill:#FFFFFF;enable-background:new    ;}
	.st25{fill:#E0B89D;}
	.st26{fill:#FFFFFF;}
	.st27{display:inline;fill:#191919;}
	.st28{display:inline;opacity:0.2;fill:#F37F95;enable-background:new    ;}
	.st29{display:inline;fill:none;stroke:#191919;stroke-linecap:round;stroke-linejoin:round;stroke-miterlimit:10;}
	.st30{display:inline;fill:#FFFFFF;}
	.st31{display:inline;fill:none;stroke:#B0AFB0;stroke-width:0.5;stroke-miterlimit:10;}
	.st32{fill:#FEE600;}
	.st33{fill:#191919;}
	.st34{opacity:0.2;fill:#F37F95;enable-background:new    ;}
	.st35{display:inline;fill:none;stroke:#AEADAB;stroke-width:0.5;stroke-miterlimit:10;}
	.st36{fill:none;stroke:#5D0C0D;stroke-width:3;stroke-miterlimit:10;}
</style>
<g id="Layer_25">
</g>
<g id="words_1_" class="st0">
	<g id="words">
		<text transform="matrix(1 0 0 1 172.9321 -62.1357)" class="st1 st2 st3">Simply Clean </text>
		<text transform="matrix(1 0 0 1 172.9321 -13.1617)" class="st1 st2 st3">Simply Dao </text>
		<text transform="matrix(1 0 0 1 151.7407 123.9238)" class="st1 st4 st5">Simply </text>
	</g>
	<g id="words_2" class="st6">
		<text transform="matrix(1 0 0 1 205.752 89.0083)" class="st2" style="fill:#BC465B; font-size:76.2974px;">SIMPLY CLEAN</text>
		<text transform="matrix(1 0 0 1 205.752 139.043)" class="st9 st2" style="font-size:76.2974px;">SIMPLY DAO</text>
	</g>
	<g id="words_2_copy" class="st6">
		<text transform="matrix(1 0 0 1 205.752 82.167)" class="st2" style="fill:#BC465B; font-size:76.2974px;">SIMPLY CLEAN</text>
		<text transform="matrix(1 0 0 1 205.752 147.8301)" class="st9 st2" style="font-size:76.2974px;">SIMPLY DAO</text>
	</g>
	<g id="words_2_copy_2" class="st6">
		<text transform="matrix(1 0 0 1 205.752 82.167)" class="st2" style="fill:#BC465B; font-size:76.2974px;">SIMPLY CLEAN</text>
		<text transform="matrix(0.9521 0 0 1 203.084 147.8301)" class="st9 st2" style="font-size:76.2974px;">SIMPLY DAO</text>
	</g>
	<g id="words_2_copy_3" class="st6">
		<text transform="matrix(1 0 0 1 -4.4458 204.5723)" class="st2" style="fill:#BC465B; font-size:29.0389px;">SIMPLY CLEAN</text>
		<text transform="matrix(0.9681 0 0 1 -5.4453 229.5635)" class="st9 st2" style="font-size:29.0389px;">SIMPLY DAO</text>
	</g>
</g>
<g id="circle">
	<circle class="st7" cx="89.5" cy="82" r="73.5"/>
</g>
<g id="Layer_27">
	<ellipse transform="matrix(0.1513 -0.9885 0.9885 0.1513 84.7195 148.692)" class="st8" cx="129" cy="25" rx="7.3" ry="3.5"/>
	
		<ellipse transform="matrix(0.7843 -0.6203 0.6203 0.7843 -12.1981 109.6454)" class="st8" cx="151.6" cy="72.4" rx="3.5" ry="7.3"/>
	<ellipse transform="matrix(0.5075 -0.8616 0.8616 0.5075 34.9355 118.6308)" class="st8" cx="121.2" cy="28.8" rx="3.5" ry="7.3"/>
</g>
<g id="backhair">
	<path class="st9" d="M36,81.5c0,0-9,55.8,13.2,81.8c0,0-3.1-35.5-0.6-60.9"/>
	<path class="st10" d="M119.9,35.9c0,0,10.9-21.9,32.7-14.9s31.1,57.2-5.8,54.5"/>
	<path class="st11" d="M122.7,31.6"/>
	<path class="st11" d="M121.2,37.1c0,0,0.4-23.2,30.2-14.8"/>
	<path class="st11" d="M168.2,62.9c0,0-12.9,22.6-24.9,13.2"/>
	<path class="st11" d="M170.2,52c0,0,3.6,31.7-18.8,21.8"/>
	<path class="st10" d="M168.2,36.5c0,0,11.3,19.7,3.6,29.8l-2.6-9.8"/>
	<ellipse class="st11" cx="148.7" cy="81.5" rx="5.5" ry="12.2"/>
	<ellipse class="st11" cx="151.6" cy="72.9" rx="9.3" ry="12.2"/>
	<path class="st11" d="M156.9,25c0,0,34.1,25,14.8,30.6"/>
	<path class="st11" d="M143.2,21.5c0,0,34.3,0,24.9,24.7"/>
</g>
<g id="Layer_26">
	<ellipse transform="matrix(0.7831 -0.6219 0.6219 0.7831 7.8215 94.3991)" class="st12" cx="139.2" cy="36" rx="7.3" ry="3.5"/>
	
		<ellipse transform="matrix(0.9203 -0.3913 0.3913 0.9203 -16.0672 63.4119)" class="st12" cx="147.6" cy="71.1" rx="3.5" ry="7.3"/>
	
		<ellipse transform="matrix(0.3019 -0.9533 0.9533 0.3019 48.0875 186.4885)" class="st12" cx="151.4" cy="60.4" rx="3.5" ry="7.3"/>
	
		<ellipse transform="matrix(0.1513 -0.9885 0.9885 0.1513 82.3711 156.9341)" class="st12" cx="132.6" cy="30.5" rx="7.3" ry="3.5"/>
	<ellipse transform="matrix(0.2506 -0.9681 0.9681 0.2506 63.5768 174.466)" class="st12" cx="144.5" cy="46.2" rx="3.5" ry="7.3"/>
	<g>
		<ellipse transform="matrix(0.8171 -0.5765 0.5765 0.8171 5.8385 78.6803)" class="st13" cx="126.9" cy="30.1" rx="4.8" ry="10"/>
		
			<ellipse transform="matrix(0.2395 -0.9709 0.9709 0.2395 69.3533 166.7336)" class="st13" cx="141.1" cy="39.1" rx="4.8" ry="10"/>
	</g>
	<ellipse transform="matrix(0.8135 -0.5816 0.5816 0.8135 -9.5698 99.0114)" class="st13" cx="149.6" cy="64.4" rx="3.5" ry="7.3"/>
	
		<ellipse transform="matrix(0.1513 -0.9885 0.9885 0.1513 69.8212 188.1361)" class="st13" cx="144.5" cy="53.4" rx="7.3" ry="3.5"/>
</g>
<g id="shirt" class="st0">
	<path class="st14" d="M74.2,148.3c0,0-8.3,9.3-13.1,25c0,0,24.3,8.6,50.5-0.6c0,0-6.4-16.4-12.9-24"/>
</g>
<g id="Layer_29">
	<path class="st15" d="M119,139.7c0,0,8.4-13.6,29-0.8C168.7,151.8,124,156.2,119,139.7z"/>
	<path class="st16" d="M112.8,135.1c0,0,2.3-15.8,26.4-12.2S123.9,148.3,112.8,135.1z"/>
</g>
<g id="head">
	<path class="st17" d="M133.9,50.2c3.4,8.4,5.4,17.8,5.4,27.8c0,34.2-11.4,62.2-50.7,62c-39.5-0.2-50.7-27.8-50.7-62
		c0-17.8,6.1-33.8,15.9-45.1"/>
	<path class="st17" d="M93.3,141.7c0,3.6-2.9,6.5-6.5,6.5l0,0c-3.6,0-6.5-2.9-6.5-6.5v-3.5c0-3.6,2.9-6.5,6.5-6.5l0,0
		c3.6,0,6.5,2.9,6.5,6.5V141.7z"/>
	<path class="st17" d="M80.2,143l-6,5.3c0,0,3,6.6,12.2,7.2c9.8,0.7,12.2-6.8,12.2-6.8l-5.5-5.7"/>
</g>
<g id="scarf">
	<g>
		<path class="st16" d="M57.2,135.3c0,0,27.5-32.7,63.1-0.7c0,0,14.1-0.4,12.4,11.8c0,0,9.9,12.6-37.7,10c0,0-53.4,5.3-42.4-9.6
			C52.6,146.9,49.2,140,57.2,135.3z"/>
		<g>
			<g>
				<defs>
					<path id="SVGID_1_" d="M57.2,135.3c0,0,27.5-32.7,63.1-0.7c0,0,14.1-0.4,12.4,11.8c0,0,9.9,12.6-37.7,10c0,0-53.4,5.3-42.4-9.6
						C52.6,146.9,49.2,140,57.2,135.3z"/>
				</defs>
				<clipPath id="SVGID_2_">
					<use xlink:href="#SVGID_1_"  style="overflow:visible;"/>
				</clipPath>
				<path class="st18" d="M77.5,117.2c0,0-18.2,28.2-4.2,47.5l-25.3-3l-8.4-42.5L77.5,117.2z"/>
			</g>
		</g>
		<g>
			<g>
				<defs>
					<path id="SVGID_3_" d="M57.2,135.3c0,0,27.5-32.7,63.1-0.7c0,0,14.1-0.4,12.4,11.8c0,0,9.9,12.6-37.7,10c0,0-53.4,5.3-42.4-9.6
						C52.6,146.9,49.2,140,57.2,135.3z"/>
				</defs>
				<clipPath id="SVGID_4_">
					<use xlink:href="#SVGID_3_"  style="overflow:visible;"/>
				</clipPath>
				<path class="st19" d="M104.4,113.7c0,0,5.9,22.8-2.1,54.5l34.9-3l3-42L104.4,113.7z"/>
			</g>
		</g>
	</g>
	<path class="st16" d="M69.5,157.2l13,3.4c0,0,12,1.9,22.2-3.8l-9.6-11.2L69.5,157.2z"/>
</g>
<g id="shirt_1_" class="st0">
	<path class="st20" d="M72.1,150.6c0,0-10.9,13.3-14.6,21.3c0,0,10.5,3.7,15.8,4l8.6-21.3l-4.6-12.9l-8.8,4.3L72.1,150.6z"/>
	<path class="st20" d="M99.9,149.8c0,0,12,14.3,15.9,21.4c0,0-10.3,4-16.9,4.6l-8.2-20.5l5.5-13.6l7.8,4.4L99.9,149.8z"/>
	<path class="st21" d="M82.9,164.1c-0.5,1.3-1.9,1.9-3.2,1.4l-3-1.2c-1.3-0.5-1.9-1.9-1.4-3.2l0,0c0.5-1.3,1.9-1.9,3.2-1.4l3,1.2
		C82.8,161.4,83.4,162.9,82.9,164.1L82.9,164.1z"/>
	<path class="st21" d="M79,173.4c-0.5,1.3-1.9,1.9-3.2,1.4l-3-1.2c-1.3-0.5-1.9-1.9-1.4-3.2l0,0c0.5-1.3,1.9-1.9,3.2-1.4l3,1.2
		C78.8,170.7,79.5,172.1,79,173.4L79,173.4z"/>
</g>
<g id="bangs">
	<path class="st9" d="M120.6,30c30.8,20.3,26.9,60.6,26.9,60.6c-16,5.1-34.1-45.4-34.1-45.4s-27,51.5-86.9,49.1
		c0,0-4.7-59.7,45.1-76.1c0,0,21.7-6.9,27.1,8.8C98.7,27,114.2,25.8,120.6,30z"/>
	<path class="st22" d="M41.2,43.5c0,0-42.7,56-6.2,75.2"/>
	<path class="st22" d="M142.3,72c0,0,18.5,40.4-4,52.8"/>
	<path class="st9" d="M98.7,27c0,0,51-9,48.8,53.3"/>
	<ellipse class="st23" cx="100.8" cy="14.8" rx="3.8" ry="9.5"/>
	<ellipse transform="matrix(0.797 -0.604 0.604 0.797 12.579 72.9581)" class="st23" cx="114.8" cy="17.8" rx="9.5" ry="3.8"/>
	<path class="st22" d="M142.3,52c0,0,15.2,12.2,4.2,40.8"/>
	<path class="st22" d="M61,24.2c0,0-33.2,3.8-26,41"/>
	<path class="st22" d="M30.7,86.1c0,0-8.4,32.9,10.2,52.9"/>
</g>
<g id="highlights">
	<ellipse transform="matrix(0.594 -0.8045 0.8045 0.594 -25.5963 56.1032)" class="st24" cx="42.8" cy="53.4" rx="11.2" ry="5"/>
	<ellipse transform="matrix(0.594 -0.8045 0.8045 0.594 -7.7977 58.7327)" class="st24" cx="54.3" cy="37.1" rx="3.4" ry="2.7"/>
</g>
<g id="ears">
	<ellipse class="st17" cx="37.9" cy="98" rx="11.4" ry="14"/>
	<ellipse class="st17" cx="139.2" cy="100.5" rx="11.4" ry="14"/>
	<path class="st25" d="M33.2,91.5c0,0,8.4,6,7.7,13.1"/>
	<path class="st25" d="M136.2,104.6c0,0,0-8.9,6.1-10.3"/>
</g>
<g id="hair">
	<path class="st9" d="M129.4,72c0,0,1.7,69.2-6.7,80.7c0,0,26.9-18,19.2-79.2"/>
</g>
<g id="clips">
	<path class="st16" d="M119.4,60.3c-1.4,0.7-3.3,0.1-4.1-1.5l0,0c-0.8-1.6-0.3-3.4,1.1-4.2l13.1-6.8c1.4-0.7,3.3-0.1,4.1,1.5l0,0
		c0.8,1.6,0.3,3.4-1.1,4.2L119.4,60.3z"/>
	<path class="st26" d="M123.1,66.8c-1.4,0.7-3.3,0.1-4.1-1.5l0,0c-0.8-1.6-0.3-3.4,1.1-4.2l13.1-6.8c1.4-0.7,3.3-0.1,4.1,1.5l0,0
		c0.8,1.6,0.3,3.4-1.1,4.2L123.1,66.8z"/>
</g>
<g id="face">
	<g id="face_1_" class="st0">
		<ellipse transform="matrix(0.8682 -0.4961 0.4961 0.8682 -28.0946 38.2038)" class="st27" cx="57.9" cy="72" rx="5.9" ry="2.7"/>
		<ellipse transform="matrix(0.5574 -0.8302 0.8302 0.5574 -8.9584 127.1854)" class="st27" cx="114.8" cy="72" rx="2.7" ry="5.9"/>
		<circle class="st28" cx="61" cy="110.5" r="14.8"/>
		<circle class="st28" cx="113.5" cy="110" r="14.8"/>
		<ellipse class="st27" cx="64.6" cy="91.5" rx="3.6" ry="10.3"/>
		<ellipse class="st27" cx="111.2" cy="91.5" rx="3.6" ry="10.3"/>
		<path class="st29" d="M74.8,107.8c0,0,11.4,17.9,24,2.4"/>
		<path class="st28" d="M88.5,102.8c0,1-1.1,1.8-2.4,1.8l0,0c-1.3,0-2.4-0.8-2.4-1.8v-12c0-1,1.1-1.8,2.4-1.8l0,0
			c1.3,0,2.4,0.8,2.4,1.8V102.8z"/>
	</g>
	<g id="face_copy" class="st0">
		<ellipse transform="matrix(0.8682 -0.4961 0.4961 0.8682 -28.0946 38.2038)" class="st27" cx="57.9" cy="72" rx="5.9" ry="2.7"/>
		<ellipse transform="matrix(0.5574 -0.8302 0.8302 0.5574 -8.9584 127.1854)" class="st27" cx="114.8" cy="72" rx="2.7" ry="5.9"/>
		<circle class="st28" cx="61" cy="110.5" r="14.8"/>
		<circle class="st28" cx="113.5" cy="110" r="14.8"/>
		<ellipse class="st27" cx="64.6" cy="91.5" rx="3.6" ry="10.3"/>
		<ellipse class="st27" cx="111.2" cy="91.5" rx="3.6" ry="10.3"/>
		<path class="st28" d="M88.5,102.8c0,1-1.1,1.8-2.4,1.8l0,0c-1.3,0-2.4-0.8-2.4-1.8v-12c0-1,1.1-1.8,2.4-1.8l0,0
			c1.3,0,2.4,0.8,2.4,1.8V102.8z"/>
		<path class="st30" d="M80.2,114.5l31-4.5c0,0,1,13-15.5,15.2S80.2,114.5,80.2,114.5z"/>
		<line class="st31" x1="86.1" y1="113.6" x2="87" y2="124.8"/>
		<line class="st31" x1="93.3" y1="112.6" x2="94" y2="125.5"/>
		<line class="st31" x1="100.1" y1="111.6" x2="101.2" y2="123.9"/>
		<line class="st31" x1="106.4" y1="110.7" x2="107" y2="120.4"/>
		<g class="st6">
			<path class="st32" d="M17.4,122.1c0,0.7-0.6,1.3-1.3,1.3l0,0c-0.7,0-1.3-0.6-1.3-1.3v-5.4c0-0.7,0.6-1.3,1.3-1.3l0,0
				c0.7,0,1.3,0.6,1.3,1.3V122.1z"/>
			<path class="st32" d="M13.4,120.9c-0.7,0-1.3-0.6-1.3-1.3l0,0c0-0.7,0.6-1.3,1.3-1.3h5.4c0.7,0,1.3,0.6,1.3,1.3l0,0
				c0,0.7-0.6,1.3-1.3,1.3H13.4z"/>
		</g>
		<g class="st6">
			<path class="st32" d="M11.8,111.5c0,1.1-0.9,2.1-2.1,2.1l0,0c-1.1,0-2.1-0.9-2.1-2.1V103c0-1.1,0.9-2.1,2.1-2.1l0,0
				c1.1,0,2.1,0.9,2.1,2.1V111.5z"/>
			<path class="st32" d="M5.5,109.6c-1.1,0-2.1-0.9-2.1-2.1l0,0c0-1.2,0.9-2.1,2.1-2.1H14c1.1,0,2.1,0.9,2.1,2.1l0,0
				c0,1.1-0.9,2.1-2.1,2.1H5.5z"/>
		</g>
	</g>
	<g id="face_copy_2" class="st0">
		<ellipse transform="matrix(0.8682 -0.4961 0.4961 0.8682 -28.0946 38.2038)" class="st27" cx="57.9" cy="72" rx="5.9" ry="2.7"/>
		<ellipse transform="matrix(0.5574 -0.8302 0.8302 0.5574 -8.9584 127.1854)" class="st27" cx="114.8" cy="72" rx="2.7" ry="5.9"/>
		<circle class="st28" cx="61" cy="110.5" r="14.8"/>
		<circle class="st28" cx="113.5" cy="110" r="14.8"/>
		<ellipse class="st27" cx="66.4" cy="89" rx="5.4" ry="2.5"/>
		<path class="st29" d="M74.8,107.8c0,0,11.4,17.9,24,2.4"/>
		<path class="st28" d="M88.5,102.8c0,1-1.1,1.8-2.4,1.8l0,0c-1.3,0-2.4-0.8-2.4-1.8v-12c0-1,1.1-1.8,2.4-1.8l0,0
			c1.3,0,2.4,0.8,2.4,1.8V102.8z"/>
		<ellipse class="st27" cx="106.2" cy="89" rx="5.4" ry="2.5"/>
	</g>
	<g id="face_copy_3" class="st0">
		<ellipse transform="matrix(0.8682 -0.4961 0.4961 0.8682 -28.0946 38.2038)" class="st27" cx="57.9" cy="72" rx="5.9" ry="2.7"/>
		<ellipse transform="matrix(0.5574 -0.8302 0.8302 0.5574 -8.9584 127.1854)" class="st27" cx="114.8" cy="72" rx="2.7" ry="5.9"/>
		<circle class="st28" cx="61" cy="110.5" r="14.8"/>
		<circle class="st28" cx="113.5" cy="110" r="14.8"/>
		<path class="st29" d="M74.8,107.8c0,0,11.3,17,25.1,0.7"/>
		<path class="st28" d="M88.5,102.8c0,1-1.1,1.8-2.4,1.8l0,0c-1.3,0-2.4-0.8-2.4-1.8v-12c0-1,1.1-1.8,2.4-1.8l0,0
			c1.3,0,2.4,0.8,2.4,1.8V102.8z"/>
		<path class="st27" d="M111.6,89c0,1.4-2.4,0-5.4,0c-3,0-5.4,1.4-5.4,0s2.4-2.5,5.4-2.5C109.2,86.5,111.6,87.6,111.6,89z"/>
		<path class="st27" d="M70,89c0,1.4-2.4,0-5.4,0c-3,0-5.4,1.4-5.4,0s2.4-2.5,5.4-2.5C67.5,86.5,70,87.6,70,89z"/>
	</g>
	<g id="face_copy_5">
		<ellipse transform="matrix(0.8682 -0.4961 0.4961 0.8682 -28.0946 38.2038)" class="st33" cx="57.9" cy="72" rx="5.9" ry="2.7"/>
		<ellipse transform="matrix(0.5574 -0.8302 0.8302 0.5574 -8.9584 127.1854)" class="st33" cx="114.8" cy="72" rx="2.7" ry="5.9"/>
		<circle class="st34" cx="61" cy="110.5" r="14.8"/>
		<circle class="st34" cx="113.5" cy="110" r="14.8"/>
		<path class="st33" d="M113.9,89c0,1.4-2.4,0-5.4,0c-3,0-5.4,1.4-5.4,0s2.4-2.5,5.4-2.5C111.4,86.5,113.9,87.6,113.9,89z"/>
		<path class="st33" d="M70,89c0,1.4-2.4,0-5.4,0c-3,0-5.4,1.4-5.4,0s2.4-2.5,5.4-2.5C67.5,86.5,70,87.6,70,89z"/>
	</g>
	<g id="face_copy_4" class="st0">
		<ellipse transform="matrix(0.8682 -0.4961 0.4961 0.8682 -28.0946 38.2038)" class="st27" cx="57.9" cy="72" rx="5.9" ry="2.7"/>
		<ellipse transform="matrix(0.5574 -0.8302 0.8302 0.5574 -8.9584 127.1854)" class="st27" cx="114.8" cy="72" rx="2.7" ry="5.9"/>
		<circle class="st28" cx="61" cy="110.5" r="14.8"/>
		<circle class="st28" cx="113.5" cy="110" r="14.8"/>
		<path class="st28" d="M88.5,102.8c0,1-1.1,1.8-2.4,1.8l0,0c-1.3,0-2.4-0.8-2.4-1.8v-12c0-1,1.1-1.8,2.4-1.8l0,0
			c1.3,0,2.4,0.8,2.4,1.8V102.8z"/>
		<path class="st27" d="M112.3,89c0,1.4-2.4,0-5.4,0c-3,0-5.4,1.4-5.4,0s2.4-2.5,5.4-2.5C109.9,86.5,112.3,87.6,112.3,89z"/>
		<path class="st27" d="M70,89c0,1.4-2.4,0-5.4,0c-3,0-5.4,1.4-5.4,0s2.4-2.5,5.4-2.5C67.5,86.5,70,87.6,70,89z"/>
		<path class="st30" d="M73.5,111.7l31.2,0.3c0,0-1.3,15.8-18.3,13.4C69.9,123.2,73.5,111.7,73.5,111.7z"/>
		<line class="st35" x1="78.5" y1="112" x2="78.5" y2="123"/>
		<line class="st35" x1="85.8" y1="111.8" x2="85.8" y2="125.7"/>
		<line class="st35" x1="93.5" y1="112" x2="93.5" y2="125.2"/>
		<line class="st35" x1="99.9" y1="112" x2="99.9" y2="122.3"/>
	</g>
</g>
<g id="glasses">
	<path class="st36" d="M84.7,85.3c0,9.8-7.9,17.8-17.8,17.8s-17.8-7.9-17.8-17.8s7.7-9.2,17.5-9.2S84.7,75.5,84.7,85.3z"/>
	<path class="st36" d="M127.8,85.3c0,9.8-7.9,17.8-17.8,17.8s-17.8-7.9-17.8-17.8s7.7-9.2,17.5-9.2
		C119.6,76.1,127.8,75.5,127.8,85.3z"/>
	<path class="st36" d="M84.4,87.3c0,0,4.9-2.8,7.9,0"/>
	<path class="st36" d="M125.3,86.7"/>
</g>
</svg>
