<?xml version="1.0" encoding="utf-8"?>
<!-- Generator: Adobe Illustrator 16.0.0, SVG Export Plug-In . SVG Version: 6.00 Build 0)  -->
<!DOCTYPE svg PUBLIC "-//W3C//DTD SVG 1.1//EN" "http://www.w3.org/Graphics/SVG/1.1/DTD/svg11.dtd">
<svg version="1.1" xmlns="http://www.w3.org/2000/svg" xmlns:xlink="http://www.w3.org/1999/xlink" x="0px" y="0px" width="62px"
	 height="72.708px" viewBox="0 0 62 72.708" enable-background="new 0 0 62 72.708" xml:space="preserve">
<g id="Layer_2" display="none">
	<rect display="inline" fill="#F2F2F2" width="62" height="72.708"/>
</g>
<g id="Layer_1" display="none">
	<path display="inline" fill="#FFFFFF" d="M62,41.708c0,17.121-13.879,31-31,31s-31-13.879-31-31c0-17.121,13.879-31,31-31
		S62,24.587,62,41.708"/>
	<path display="inline" fill="#AFBEB1" d="M28.34,7.62c-0.812,2.202-4.83,2.75-8.976,1.222c-4.146-1.528-6.849-4.552-6.038-6.754
		c0.812-2.202,4.83-2.75,8.976-1.222C26.448,2.393,29.152,5.417,28.34,7.62"/>
	<path display="inline" fill="#AFBEB1" d="M37.875,2.249c0.68,1.167-0.553,3.149-2.75,4.426c-2.199,1.276-4.53,1.365-5.208,0.197
		c-0.679-1.168,0.553-3.149,2.751-4.426C34.865,1.168,37.197,1.081,37.875,2.249"/>
	<g display="inline">
		<path fill-rule="evenodd" clip-rule="evenodd" fill="#E4C0CE" d="M32.701,16.464c6.345,1.403,11.486,4.604,15.381,9.729
			c3.821,5.031,5.523,10.758,5.207,17.05c-0.196,3.909-1.281,7.6-3.19,11.033c-1.367,2.459-3.073,4.648-5.151,6.541
			c-2.688,2.447-5.751,4.271-9.199,5.438c-1.586,0.536-2.407,0.724-3.038,0.691c-0.169-0.247-0.094-0.529-0.104-0.801
			c-0.25-7.396-0.079-14.797-0.11-22.193c-0.029-7.403-0.007-14.805-0.007-22.207c0.165-1.649,0.097-3.306,0.121-4.959
			C32.611,16.708,32.653,16.632,32.701,16.464z M37.167,60.539c0.256-0.105,0.41-0.155,0.55-0.229
			c1.511-0.821,2.895-1.824,4.153-2.995c2.189-2.036,3.886-4.427,5.076-7.177c1.108-2.562,1.656-5.247,1.735-8.03
			c0.035-1.215-0.102-2.421-0.281-3.622c-0.436-2.908-1.467-5.59-3.036-8.068c-1.311-2.071-2.959-3.844-4.882-5.36
			c-0.867-0.686-1.795-1.286-2.76-1.825c-0.158-0.089-0.324-0.235-0.556-0.051C37.167,35.576,37.167,47.995,37.167,60.539z"/>
		<path fill-rule="evenodd" clip-rule="evenodd" fill="#E4C0CE" d="M27.28,16.809c0.138,0.55,0.176,3.448,0.054,4.659
			c-0.146,0.062-0.313,0.148-0.49,0.207c-2.162,0.729-4.159,1.768-5.989,3.133c-2.355,1.757-4.252,3.92-5.726,6.459
			c-1.229,2.123-2.032,4.402-2.467,6.81c-0.123,0.677-0.168,1.367-0.239,2.053c-0.048,0.493-0.114,0.987-0.108,1.481
			c0.049,4.937,1.516,9.392,4.576,13.283c2.538,3.227,5.783,5.49,9.646,6.873c0.207,0.074,0.415,0.147,0.622,0.228
			c0.05,0.02,0.094,0.052,0.143,0.082c0.127,0.673,0.125,4.055-0.006,4.682c-3.643-0.588-8.925-3.309-12.557-7.226
			C9.875,54.29,7.501,48.059,7.682,40.916c0.112-4.406,1.339-8.537,3.607-12.333c2.237-3.743,5.23-6.748,8.973-8.99
			C22.725,18.117,26.021,16.833,27.28,16.809z"/>
	</g>
</g>
<g id="Layer_3">
	<path fill="#E4C0CE" d="M62,41.708c0,17.121-13.879,31-31,31s-31-13.879-31-31c0-17.121,13.879-31,31-31S62,24.587,62,41.708"/>
	<path fill="#AFBEB1" d="M28.34,7.62c-0.812,2.202-4.83,2.75-8.977,1.222c-4.146-1.528-6.848-4.552-6.037-6.754
		c0.812-2.202,4.83-2.75,8.976-1.222C26.448,2.393,29.152,5.417,28.34,7.62"/>
	<path fill="#AFBEB1" d="M37.875,2.249c0.68,1.167-0.553,3.149-2.75,4.426c-2.199,1.276-4.529,1.365-5.208,0.197
		s0.554-3.149,2.751-4.426C34.865,1.168,37.197,1.081,37.875,2.249"/>
	<g>
		<path fill-rule="evenodd" clip-rule="evenodd" fill="#FFFFFF" d="M33.702,16.464c6.345,1.403,11.486,4.604,15.381,9.729
			c3.821,5.031,5.523,10.758,5.207,17.05c-0.196,3.909-1.281,7.6-3.19,11.033c-1.367,2.459-3.073,4.648-5.151,6.541
			c-2.688,2.447-5.751,4.271-9.199,5.438c-1.586,0.536-2.407,0.724-3.038,0.691c-0.169-0.247-0.094-0.529-0.104-0.801
			c-0.25-7.396-0.079-14.797-0.11-22.193c-0.029-7.403-0.007-14.805-0.007-22.207c0.165-1.649,0.097-3.306,0.121-4.959
			C33.612,16.708,33.654,16.632,33.702,16.464z M38.168,60.539c0.256-0.105,0.41-0.155,0.55-0.229
			c1.511-0.821,2.895-1.824,4.153-2.995c2.189-2.036,3.886-4.427,5.076-7.177c1.108-2.562,1.656-5.247,1.735-8.03
			c0.035-1.215-0.102-2.421-0.281-3.622c-0.436-2.908-1.467-5.591-3.036-8.067c-1.311-2.072-2.959-3.844-4.882-5.36
			c-0.867-0.686-1.795-1.286-2.76-1.825c-0.158-0.089-0.324-0.235-0.556-0.051C38.168,35.576,38.168,47.995,38.168,60.539z"/>
		<path fill-rule="evenodd" clip-rule="evenodd" fill="#FFFFFF" d="M28.281,16.809c0.138,0.55,0.177,3.448,0.054,4.659
			c-0.146,0.062-0.312,0.148-0.489,0.207c-2.161,0.729-4.159,1.768-5.989,3.133c-2.355,1.757-4.252,3.92-5.726,6.46
			c-1.229,2.122-2.032,4.401-2.468,6.81c-0.123,0.677-0.168,1.367-0.238,2.053c-0.048,0.493-0.114,0.987-0.108,1.481
			c0.05,4.937,1.517,9.392,4.576,13.283c2.538,3.227,5.782,5.49,9.646,6.873c0.207,0.074,0.415,0.147,0.623,0.228
			c0.049,0.02,0.094,0.052,0.143,0.082c0.127,0.673,0.125,4.055-0.007,4.682c-3.643-0.588-8.925-3.309-12.557-7.226
			c-4.864-5.244-7.238-11.475-7.058-18.618c0.112-4.406,1.34-8.537,3.607-12.333c2.237-3.742,5.23-6.748,8.973-8.989
			C23.726,18.117,27.021,16.833,28.281,16.809z"/>
	</g>
</g>
</svg>
